<svg viewBox="0 0 600 400" xmlns="http://www.w3.org/2000/svg">
<g transform="translate(72, 364)">
<g>
<g>
<path d="M0,0 L0,0 L0.6,0 L1.2,0 L1.8,0 L2.4,0 L3,0 L3.6,0 L4.2,0 L4.8,0 L5.4,0 L6,0 L6.6,0 L7.2,0 L7.8,0 L8.4,0 L9,0 L9.6,0 L10.2,0 L10.8,0 L11.4,0 L12,0 L12.6,0 L13.2,0 L13.8,0 L14.4,0 L15,0 L15.6,0 L16.2,0 L16.8,0 L17.4,0 L18,0 L18.6,0 L19.2,0 L19.8,0 L20.4,0 L21,0 L21.6,0 L22.2,0 L22.8,0 L23.4,0 L24,0 L24.6,0 L25.2,0 L25.8,0 L26.4,0 L27,0 L27.6,0 L28.2,0 L28.8,0 L29.4,0 L30,0 L30.6,0 L31.2,0 L31.8,0 L32.4,0 L33,0 L33.6,0 L34.2,0 L34.8,0 L35.4,0 L36,0 L36.6,0 L37.2,0 L37.8,0 L38.4,0 L39,0 L39.6,0 L40.2,0 L40.8,0 L41.4,0 L42,0 L42.6,0 L43.2,0 L43.8,0 L44.4,0 L45,0 L45.6,0 L46.2,0 L46.8,0 L47.4,0 L48,0 L48.6,0 L49.2,0 L49.8,0 L50.4,0 L51,0 L51.6,0 L52.2,0 L52.8,0 L53.4,0 L54,0 L54.6,0 L55.2,0 L55.8,0 L56.4,0 L57,0 L57.6,0 L58.2,0 L58.8,0 L59.4,0 L60,0 L60.6,0 L61.2,0 L61.8,0 L62.4,0 L63,0 L63.6,0 L64.2,0 L64.8,0 L65.4,0 L66,0 L66.6,-0.021046303 L67.2,-0.017843433 L67.8,-0.018201796 L68.4,-0.017353771 L69,-0.016925255 L69.6,-0.016162004 L70.2,-0.015951028 L70.8,-0.015230777 L71.4,-0.015178312 L72,-0.014494921 L72.6,0.048873596 L73.2,0 L73.8,-0.017542528 L74.4,-0.015764425 L75,-0.015783958 L75.6,-0.015022764 L76.2,-0.0150507605 L76.8,-0.014322108 L77.4,0.05166012 L78,0 L78.6,-0.017440723 L79.2,-0.015684746 L79.8,-0.015711157 L80.4,-0.014947699 L81,-0.014991904 L81.6,0.05328513 L82.2,0 L82.8,-0.017503174 L83.4,-0.01573364 L84,-0.015755896 L84.6,-0.014993867 L85.2,-0.015028097 L85.8,0.054034173 L86.4,0 L87,0 L87.6,-0.019034073 L88.2,-0.015757976 L88.8,-0.01617223 L89.4,0.04990835 L90,0 L90.6,-0.01719322 L91.2,-0.016489942 L91.8,-0.016135747 L92.4,-0.01551114 L93,-0.015305719 L93.6,-0.014737481 L94.2,0 L94.8,0 L95.4,0 L96,0 L96.6,0 L97.2,0 L97.8,0 L98.4,0 L99,-0.02076415 L99.6,0 L100.2,0 L100.8,0 L101.4,0 L102,-0.021018477 L102.6,0 L103.2,0 L103.8,0 L104.4,0 L105,-0.021046303 L105.6,0 L106.2,0 L106.8,0 L107.4,0 L108,0 L108.6,0 L109.2,-0.021046303 L109.8,0 L110.4,0 L111,0 L111.6,0 L112.2,0 L112.8,-0.021046303 L113.4,0 L114,0 L114.6,0 L115.2,0 L115.8,0 L116.4,-0.021046303 L117,0 L117.6,0 L118.2,0 L118.8,0 L119.4,0 L120,0 L120.6,-0.021046303 L121.2,0 L121.8,0 L122.4,0 L123,0 L123.6,0 L124.2,-0.021046303 L124.8,0 L125.4,0 L126,0 L126.6,0 L127.2,0 L127.8,-0.021046303 L128.4,0 L129,0 L129.6,0 L130.2,0 L130.8,0 L131.4,-0.021046303 L132,0 L132.6,0 L133.2,0 L133.8,0 L134.4,0 L135,-0.021046303 L135.6,0 L136.2,0 L136.8,0 L137.4,0 L138,0 L138.6,0 L139.2,-0.021046303 L139.8,0 L140.4,0 L141,0 L141.6,0 L142.2,0 L142.8,-0.021046303 L143.4,0 L144,0 L144.6,0 L145.2,0 L145.8,0 L146.4,-0.021046303 L147,0 L147.6,0 L148.2,0 L148.8,0 L149.4,0 L150,-0.021046303 L150.6,0 L151.2,0 L151.8,0 L152.4,0 L153,0 L153.6,0 L154.2,-0.021046303 L154.8,0 L155.4,0 L156,0 L156.6,0 L157.2,0 L157.8,-0.021046303 L158.4,0 L159,0 L159.6,0 L160.2,0 L160.8,0 L161.4,-0.021046303 L162,0 L162.6,0 L163.2,0 L163.8,0 L164.4,0 L165,-0.021046303 L165.6,0 L166.2,0 L166.8,0 L167.4,0 L168,0 L168.6,-0.021046303 L169.2,0 L169.8,0 L170.4,0 L171,0 L171.6,0 L172.2,0 L172.8,-0.021046303 L173.4,0 L174,0 L174.6,0 L175.2,0 L175.8,0 L176.4,-0.021046303 L177,0 L177.6,0 L178.2,0 L178.8,0 L179.4,0 L180,-0.021046303 L180.6,0 L181.2,0 L181.8,0 L182.4,0 L183,0 L183.6,-0.021046303 L184.2,0 L184.8,0 L185.4,0 L186,0 L186.6,0 L187.2,-0.021046303 L187.8,0 L188.4,0 L189,0 L189.6,0 L190.2,0 L190.8,0 L191.4,-0.021046303 L192,0 L192.6,0 L193.2,0 L193.8,0 L194.4,0 L195,-0.021046303 L195.6,0 L196.2,0 L196.8,0 L197.4,0 L198,0 L198.6,-0.021046303 L199.2,0 L199.8,0 L200.4,0 L201,0 L201.6,0 L202.2,-0.021046303 L202.8,0 L203.4,0 L204,0 L204.6,0 L205.2,0 L205.8,0 L206.4,-0.021046303 L207,0 L207.6,0 L208.2,0 L208.8,0 L209.4,0 L210,-0.021046303 L210.6,0 L211.2,0 L211.8,0 L212.4,0 L213,0 L213.6,-0.021046303 L214.2,0 L214.8,0 L215.4,0 L216,0 L216.6,0 L217.2,-0.021046303 L217.8,0 L218.4,0 L219,0 L219.6,0 L220.2,0 L220.8,-0.021046303 L221.4,0 L222,0 L222.6,0 L223.2,0 L223.8,0 L224.4,0 L225,-0.021046303 L225.6,0 L226.2,0 L226.8,0 L227.4,0 L228,0 L228.6,-0.021046303 L229.2,0 L229.8,0 L230.4,0 L231,0 L231.6,0 L232.2,-0.021046303 L232.8,0 L233.4,0 L234,0 L234.6,0 L235.2,0 L235.8,-0.021046303 L236.4,0 L237,0 L237.6,0 L238.2,0 L238.8,0 L239.4,0 L240,-0.021046303 L240.6,0 L241.2,0 L241.8,0 L242.4,0 L243,0 L243.6,0 L244.2,0 L244.8,0 L245.4,0 L246,0 L246.6,0 L247.2,0 L247.8,0 L248.4,0 L249,0 L249.6,0 L250.2,0 L250.8,0 L251.4,0 L252,0 L252.6,0 L253.2,0 L253.8,0 L254.4,0 L255,0 L255.6,0 L256.2,0 L256.8,0 L257.4,0 L258,0 L258.6,0 L259.2,0 L259.8,0 L260.4,0 L261,0 L261.6,0 L262.2,0 L262.8,0 L263.4,0 L264,0 L264.6,0 L265.2,0 L265.8,0 L266.4,0 L267,0 L267.6,0 L268.2,0 L268.8,0 L269.4,0 L270,0 L270.6,0 L271.2,0 L271.8,0 L272.4,0 L273,0 L273.6,0 L274.2,0 L274.8,0 L275.4,0 L276,0 L276.6,0 L277.2,0 L277.8,0 L278.4,0 L279,0 L279.6,0 L280.2,0 L280.8,0 L281.4,0 L282,0 L282.6,0 L283.2,0 L283.8,0 L284.4,0 L285,0 L285.6,0 L286.2,0 L286.8,0 L287.4,0 L288,0 L288.6,0 L289.2,0 L289.8,0 L290.4,0 L291,0 L291.6,0 L292.2,0 L292.8,0 L293.4,0 L294,0 L294.6,0 L295.2,0 L295.8,0 L296.4,0 L297,0 L297.6,0 L298.2,0 L298.8,0 L299.4,0 L300,0 L300.6,0 L301.2,0 L301.8,0 L302.4,0 L303,0 L303.6,0 L304.2,0 L304.8,0 L305.4,0 L306,0 L306.6,0 L307.2,0 L307.8,0 L308.4,0 L309,0 L309.6,0 L310.2,0 L310.8,0 L311.4,0 L312,0 L312.6,0 L313.2,0 L313.8,0 L314.4,0 L315,0 L315.6,0 L316.2,0 L316.8,0 L317.4,0 L318,0 L318.6,0 L319.2,0 L319.8,0 L320.4,0 L321,0 L321.6,0 L322.2,0 L322.8,0 L323.4,0 L324,0 L324.6,0 L325.2,0 L325.8,0 L326.4,0 L327,0 L327.6,0 L328.2,0 L328.8,0 L329.4,0 L330,0 L330.6,0 L331.2,0 L331.8,0 L332.4,0 L333,0 L333.6,0 L334.2,0 L334.8,0 L335.4,0 L336,0 L336.6,0 L337.2,0 L337.8,0 L338.4,0 L339,0 L339.6,0 L340.2,0 L340.8,0 L341.4,0 L342,0 L342.6,0 L343.2,0 L343.8,0 L344.4,0 L345,0 L345.6,0 L346.2,0 L346.8,0 L347.4,0 L348,0 L348.6,0 L349.2,0 L349.8,0 L350.4,0 L351,0 L351.6,0 L352.2,0 L352.8,0 L353.4,0 L354,0 L354.6,0 L355.2,0 L355.8,0 L356.4,0 L357,0 L357.6,0 L358.2,0 L358.8,0 L359.4,0 L360,0 L360.6,0 L361.2,0 L361.8,0 L362.4,0 L363,0 L363.6,0 L364.2,0 L364.8,0 L365.4,0 L366,0 L366.6,0 L367.2,0 L367.8,0 L368.4,-0.021046303 L369,0 L369.6,0 L370.2,0 L370.8,0 L371.4,0 L372,-0.021046303 L372.6,0 L373.2,0 L373.8,0 L374.4,0 L375,0 L375.6,-0.021046303 L376.2,0 L376.8,0 L377.4,0 L378,0 L378.6,0 L379.2,0 L379.8,-0.021016428 L380.4,0 L381,0 L381.6,0 L382.2,0 L382.8,0 L383.4,0 L384,-0.020795021 L384.6,0 L385.2,0 L385.8,0 L386.4,0 L387,0 L387.6,0 L388.2,0 L388.8,-0.020456247 L389.4,0.05359028 L390,0 L390.6,-0.0195183 L391.2,-0.017643519 L391.8,-0.016415508 L392.4,-0.015358928 L393,0.047987107 L393.6,0 L394.2,0 L394.8,0 L395.4,0 L396,-0.01784046 L396.6,-0.014443519 L397.2,-0.014008693 L397.8,0.04557033 L398.4,0.019549174 L399,0.026313623 L399.6,0.021741524 L400.2,0.010865569 L400.8,0.0051004314 L401.4,0 L402,-0.019507851 L402.6,-0.015709743 L403.2,-0.01508012 L403.8,-0.013912309 L404.4,-0.013011207 L405,-0.01223914 L405.6,-0.0115660755 L406.2,-0.010972895 L406.8,0.03748473 L407.4,0.01817434 L408,0.021274038 L408.6,0.009977241 L409.2,0.004684212 L409.8,0 L410.4,-0.01408461 L411,-0.011201913 L411.6,-0.01082212 L412.2,-0.009471897 L412.8,-0.0074386485 L413.4,0.026121289 L414,0.012248383 L414.6,0.005748339 L415.2,0 L415.8,-0.009636284 L416.4,-0.0075676977 L417,-0.005943788 L417.6,-0.0046689645 L418.2,-0.0036681856 L418.8,-0.0028825402 L419.4,0.017421091 L420,0.008171972 L420.6,0.003838367 L421.2,0 L421.8,-0.0049758395 L422.4,-0.0039090924 L423,-0.0030716604 L423.6,-0.0024142482 L424.2,-0.0018981574 L424.8,-0.0014930089 L425.4,0 L426,0 L426.6,0 L427.2,0 L427.8,0 L428.4,0 L429,0 L429.6,0 L430.2,0 L430.8,0 L431.4,0 L432,0 L432.6,0 L433.2,0 L433.8,0 L434.4,0 L435,0 L435.6,0 L436.2,0 L436.8,0 L437.4,0 L438,0 L438.6,0 L439.2,0 L439.8,0 L440.4,0 L441,0 L441.6,0 L442.2,0 L442.8,0 L443.4,0 L444,0 L444.6,0 L445.2,0 L445.8,0 L446.4,0 L447,0 L447.6,0 L448.2,0 L448.8,0 L449.4,0 L450,0 L450.6,0 L451.2,0 L451.8,0 L452.4,0 L453,0 L453.6,0 L454.2,0 L454.8,0 L455.4,0 L456,0 L456.6,0 L457.2,0 L457.8,0 L458.4,0 L459,0 L459.6,0 L460.2,0 L460.8,0 L461.4,0 L462,0 L462.6,0 L463.2,0 L463.8,0 L464.4,0 L465,0 L465.6,0 L466.2,0 L466.8,0 L467.4,0 L468,0 L468.6,0 L469.2,0 L469.8,0 L470.4,0 L471,0 L471.6,0 L472.2,0 L472.8,0 L473.4,0 L474,0 L474.6,0 L475.2,0 L475.8,0 L476.4,0 L477,0 L477.6,0 L478.2,0 L478.8,0 L479.4,0 L480,0" fill="none" stroke="#DD3355" stroke-linejoin="round" stroke-width="2"/>
</g>
</g>
<g>
<g>
<path d="M0,0 L0,0 L0.6,0 L1.2,0 L1.8,0 L2.4,0 L3,0 L3.6,0 L4.2,0 L4.8,0 L5.4,0 L6,0 L6.6,0 L7.2,0 L7.8,0 L8.4,0 L9,0 L9.6,0 L10.2,0 L10.8,0 L11.4,0 L12,0 L12.6,0 L13.2,0 L13.8,0 L14.4,0 L15,0 L15.6,0 L16.2,0 L16.8,0 L17.4,0 L18,0 L18.6,0 L19.2,0 L19.8,0 L20.4,0 L21,0 L21.6,0 L22.2,0 L22.8,0 L23.4,0 L24,0 L24.6,0 L25.2,0 L25.8,0 L26.4,0 L27,0 L27.6,0 L28.2,0 L28.8,0 L29.4,0 L30,0 L30.6,0 L31.2,0 L31.8,0 L32.4,0 L33,0 L33.6,0 L34.2,0 L34.8,0 L35.4,0 L36,0 L36.6,0 L37.2,0 L37.8,0 L38.4,0 L39,0 L39.6,0 L40.2,0 L40.8,0 L41.4,0 L42,0 L42.6,0 L43.2,0 L43.8,0 L44.4,0 L45,0 L45.6,0 L46.2,0 L46.8,0 L47.4,0 L48,0 L48.6,0 L49.2,0 L49.8,0 L50.4,0 L51,0 L51.6,0 L52.2,0 L52.8,0 L53.4,0 L54,0 L54.6,0 L55.2,0 L55.8,0 L56.4,0 L57,0 L57.6,0 L58.2,0 L58.8,0 L59.4,0 L60,0 L60.6,0 L61.2,0 L61.8,0 L62.4,0 L63,0 L63.6,0 L64.2,0 L64.8,0 L65.4,0 L66,0 L66.6,0.025903143 L67.2,0.021961149 L67.8,0.02240221 L68.4,0.021358488 L69,0.020831082 L69.6,0.019891696 L70.2,0.019632036 L70.8,0.018745571 L71.4,0.018680999 L72,0.017839903 L72.6,-0.03449987 L73.2,0 L73.8,0.021590805 L74.4,0.019402368 L75,0.01942641 L75.6,0.018489556 L76.2,0.018524013 L76.8,0.01762721 L77.4,-0.03646688 L78,0 L78.6,0.021465506 L79.2,0.019304303 L79.8,0.019336808 L80.4,0.018397167 L81,0.018451573 L81.6,-0.037613973 L82.2,0 L82.8,0.021542368 L83.4,0.019364482 L84,0.019391872 L84.6,0.01845399 L85.2,0.01849612 L85.8,-0.038142722 L86.4,0 L87,0 L87.6,0.023426551 L88.2,0.019394431 L88.8,0.019904284 L89.4,-0.035230305 L90,0 L90.6,0.021160888 L91.2,0.020295313 L91.8,0.01985938 L92.4,0.019090634 L93,0.01883781 L93.6,0.018138438 L94.2,0 L94.8,0 L95.4,0 L96,0 L96.6,0 L97.2,0 L97.8,0 L98.4,0 L99,0.025555875 L99.6,0 L100.2,0 L100.8,0 L101.4,0 L102,0.025868895 L102.6,0 L103.2,0 L103.8,0 L104.4,0 L105,0.025903143 L105.6,0 L106.2,0 L106.8,0 L107.4,0 L108,0 L108.6,0 L109.2,0.025903143 L109.8,0 L110.4,0 L111,0 L111.6,0 L112.2,0 L112.8,0.025903143 L113.4,0 L114,0 L114.6,0 L115.2,0 L115.8,0 L116.4,0.025903143 L117,0 L117.6,0 L118.2,0 L118.8,0 L119.4,0 L120,0 L120.6,0.025903143 L121.2,0 L121.8,0 L122.4,0 L123,0 L123.6,0 L124.2,0.025903143 L124.8,0 L125.4,0 L126,0 L126.6,0 L127.2,0 L127.8,0.025903143 L128.4,0 L129,0 L129.6,0 L130.2,0 L130.8,0 L131.4,0.025903143 L132,0 L132.6,0 L133.2,0 L133.8,0 L134.4,0 L135,0.025903143 L135.6,0 L136.2,0 L136.8,0 L137.4,0 L138,0 L138.6,0 L139.2,0.025903143 L139.8,0 L140.4,0 L141,0 L141.6,0 L142.2,0 L142.8,0.025903143 L143.4,0 L144,0 L144.6,0 L145.2,0 L145.8,0 L146.4,0.025903143 L147,0 L147.6,0 L148.2,0 L148.8,0 L149.4,0 L150,0.025903143 L150.6,0 L151.2,0 L151.8,0 L152.4,0 L153,0 L153.6,0 L154.2,0.025903143 L154.8,0 L155.4,0 L156,0 L156.6,0 L157.2,0 L157.8,0.025903143 L158.4,0 L159,0 L159.6,0 L160.2,0 L160.8,0 L161.4,0.025903143 L162,0 L162.6,0 L163.2,0 L163.8,0 L164.4,0 L165,0.025903143 L165.6,0 L166.2,0 L166.8,0 L167.4,0 L168,0 L168.6,0.025903143 L169.2,0 L169.8,0 L170.4,0 L171,0 L171.6,0 L172.2,0 L172.8,0.025903143 L173.4,0 L174,0 L174.6,0 L175.2,0 L175.8,0 L176.4,0.025903143 L177,0 L177.6,0 L178.2,0 L178.8,0 L179.4,0 L180,0.025903143 L180.6,0 L181.2,0 L181.8,0 L182.4,0 L183,0 L183.6,0.025903143 L184.2,0 L184.8,0 L185.4,0 L186,0 L186.6,0 L187.2,0.025903143 L187.8,0 L188.4,0 L189,0 L189.6,0 L190.2,0 L190.8,0 L191.4,0.025903143 L192,0 L192.6,0 L193.2,0 L193.8,0 L194.4,0 L195,0.025903143 L195.6,0 L196.2,0 L196.8,0 L197.4,0 L198,0 L198.6,0.025903143 L199.2,0 L199.8,0 L200.4,0 L201,0 L201.6,0 L202.2,0.025903143 L202.8,0 L203.4,0 L204,0 L204.6,0 L205.2,0 L205.8,0 L206.4,0.025903143 L207,0 L207.6,0 L208.2,0 L208.8,0 L209.4,0 L210,0.025903143 L210.6,0 L211.2,0 L211.8,0 L212.4,0 L213,0 L213.6,0.025903143 L214.2,0 L214.8,0 L215.4,0 L216,0 L216.6,0 L217.2,0.025903143 L217.8,0 L218.4,0 L219,0 L219.6,0 L220.2,0 L220.8,0.025903143 L221.4,0 L222,0 L222.6,0 L223.2,0 L223.8,0 L224.4,0 L225,0.025903143 L225.6,0 L226.2,0 L226.8,0 L227.4,0 L228,0 L228.6,0.025903143 L229.2,0 L229.8,0 L230.4,0 L231,0 L231.6,0 L232.2,0.025903143 L232.8,0 L233.4,0 L234,0 L234.6,0 L235.2,0 L235.8,0.025903143 L236.4,0 L237,0 L237.6,0 L238.2,0 L238.8,0 L239.4,0 L240,0.025903143 L240.6,0 L241.2,0 L241.8,0 L242.4,0 L243,0 L243.6,0 L244.2,0 L244.8,0 L245.4,0 L246,0 L246.6,0 L247.2,0 L247.8,0 L248.4,0 L249,0 L249.6,0 L250.2,0 L250.8,0 L251.4,0 L252,0 L252.6,0 L253.2,0 L253.8,0 L254.4,0 L255,0 L255.6,0 L256.2,0 L256.8,0 L257.4,0 L258,0 L258.6,0 L259.2,0 L259.8,0 L260.4,0 L261,0 L261.6,0 L262.2,0 L262.8,0 L263.4,0 L264,0 L264.6,0 L265.2,0 L265.8,0 L266.4,0 L267,0 L267.6,0 L268.2,0 L268.8,0 L269.4,0 L270,0 L270.6,0 L271.2,0 L271.8,0 L272.4,0 L273,0 L273.6,0 L274.2,0 L274.8,0 L275.4,0 L276,0 L276.6,0 L277.2,0 L277.8,0 L278.4,0 L279,0 L279.6,0 L280.2,0 L280.8,0 L281.4,0 L282,0 L282.6,0 L283.2,0 L283.8,0 L284.4,0 L285,0 L285.6,0 L286.2,0 L286.8,0 L287.4,0 L288,0 L288.6,0 L289.2,0 L289.8,0 L290.4,0 L291,0 L291.6,0 L292.2,0 L292.8,0 L293.4,0 L294,0 L294.6,0 L295.2,0 L295.8,0 L296.4,0 L297,0 L297.6,0 L298.2,0 L298.8,0 L299.4,0 L300,0 L300.6,0 L301.2,0 L301.8,0 L302.4,0 L303,0 L303.6,0 L304.2,0 L304.8,0 L305.4,0 L306,0 L306.6,0 L307.2,0 L307.8,0 L308.4,0 L309,0 L309.6,0 L310.2,0 L310.8,0 L311.4,0 L312,0 L312.6,0 L313.2,0 L313.8,0 L314.4,0 L315,0 L315.6,0 L316.2,0 L316.8,0 L317.4,0 L318,0 L318.6,0 L319.2,0 L319.8,0 L320.4,0 L321,0 L321.6,0 L322.2,0 L322.8,0 L323.4,0 L324,0 L324.6,0 L325.2,0 L325.8,0 L326.4,0 L327,0 L327.6,0 L328.2,0 L328.8,0 L329.4,0 L330,0 L330.6,0 L331.2,0 L331.8,0 L332.4,0 L333,0 L333.6,0 L334.2,0 L334.8,0 L335.4,0 L336,0 L336.6,0 L337.2,0 L337.8,0 L338.4,0 L339,0 L339.6,0 L340.2,0 L340.8,0 L341.4,0 L342,0 L342.6,0 L343.2,0 L343.8,0 L344.4,0 L345,0 L345.6,0 L346.2,0 L346.8,0 L347.4,0 L348,0 L348.6,0 L349.2,0 L349.8,0 L350.4,0 L351,0 L351.6,0 L352.2,0 L352.8,0 L353.4,0 L354,0 L354.6,0 L355.2,0 L355.8,0 L356.4,0 L357,0 L357.6,0 L358.2,0 L358.8,0 L359.4,0 L360,0 L360.6,0 L361.2,0 L361.8,0 L362.4,0 L363,0 L363.6,0 L364.2,0 L364.8,0 L365.4,0 L366,0 L366.6,0 L367.2,0 L367.8,0 L368.4,0.025903143 L369,0 L369.6,0 L370.2,0 L370.8,0 L371.4,0 L372,0.025903143 L372.6,0 L373.2,0 L373.8,0 L374.4,0 L375,0 L375.6,0.025903143 L376.2,0 L376.8,0 L377.4,0 L378,0 L378.6,0 L379.2,0 L379.8,0.025866373 L380.4,0 L381,0 L381.6,0 L382.2,0 L382.8,0 L383.4,0 L384,0.025593873 L384.6,0 L385.2,0 L385.8,0 L386.4,0 L387,0 L387.6,0 L388.2,0 L388.8,0.02517692 L389.4,-0.037829377 L390,0 L390.6,0.024022523 L391.2,0.021715099 L391.8,0.020203702 L392.4,0.018903295 L393,-0.0338741 L393.6,0 L394.2,0 L394.8,0 L395.4,0 L396,0.02195749 L396.6,0.017776638 L397.2,0.017241469 L397.8,-0.032168094 L398.4,-0.013799762 L399,-0.018574787 L399.6,-0.015347342 L400.2,-0.007670005 L400.8,-0.0036003946 L401.4,0 L402,0.024009664 L402.6,0.019335069 L403.2,0.018560149 L403.8,0.01712284 L404.4,0.016013794 L405,0.015063557 L405.6,0.01423517 L406.2,0.013505101 L406.8,-0.026460472 L407.4,-0.012829266 L408,-0.015017343 L408.6,-0.007042934 L409.2,-0.0033065854 L409.8,0 L410.4,0.017334905 L411,0.01378697 L411.6,0.013319532 L412.2,0.0116577195 L412.8,0.0091552595 L413.4,-0.018439017 L414,-0.008646133 L414.6,-0.0040577524 L415.2,0 L415.8,0.011860042 L416.4,0.009314089 L417,0.0073154317 L417.6,0.005746418 L418.2,0.00451469 L418.8,0.0035477418 L419.4,-0.012297548 L420,-0.005768595 L420.6,-0.0027095033 L421.2,0 L421.8,0.00612411 L422.4,0.004811191 L423,0.0037805052 L423.6,0.0029713823 L424.2,0.0023361938 L424.8,0.0018375495 L425.4,0 L426,0 L426.6,0 L427.2,0 L427.8,0 L428.4,0 L429,0 L429.6,0 L430.2,0 L430.8,0 L431.4,0 L432,0 L432.6,0 L433.2,0 L433.8,0 L434.4,0 L435,0 L435.6,0 L436.2,0 L436.8,0 L437.4,0 L438,0 L438.6,0 L439.2,0 L439.8,0 L440.4,0 L441,0 L441.6,0 L442.2,0 L442.8,0 L443.4,0 L444,0 L444.6,0 L445.2,0 L445.8,0 L446.4,0 L447,0 L447.6,0 L448.2,0 L448.8,0 L449.4,0 L450,0 L450.6,0 L451.2,0 L451.8,0 L452.4,0 L453,0 L453.6,0 L454.2,0 L454.8,0 L455.4,0 L456,0 L456.6,0 L457.2,0 L457.8,0 L458.4,0 L459,0 L459.6,0 L460.2,0 L460.8,0 L461.4,0 L462,0 L462.6,0 L463.2,0 L463.8,0 L464.4,0 L465,0 L465.6,0 L466.2,0 L466.8,0 L467.4,0 L468,0 L468.6,0 L469.2,0 L469.8,0 L470.4,0 L471,0 L471.6,0 L472.2,0 L472.8,0 L473.4,0 L474,0 L474.6,0 L475.2,0 L475.8,0 L476.4,0 L477,0 L477.6,0 L478.2,0 L478.8,0 L479.4,0 L480,0" fill="none" stroke="#DD3355" stroke-linejoin="round" stroke-width="2"/>
</g>
</g>
<g>
<g>
<path d="M0,0 L0,0 L0.6,0 L1.2,0 L1.8,0 L2.4,0 L3,0 L3.6,0 L4.2,0 L4.8,0 L5.4,0 L6,0 L6.6,0 L7.2,0 L7.8,0 L8.4,0 L9,0 L9.6,0 L10.2,0 L10.8,0 L11.4,0 L12,0 L12.6,0 L13.2,0 L13.8,0 L14.4,0 L15,0 L15.6,0 L16.2,0 L16.8,0 L17.4,0 L18,0 L18.6,0 L19.2,0 L19.8,0 L20.4,0 L21,0 L21.6,0 L22.2,0 L22.8,0 L23.4,0 L24,0 L24.6,0 L25.2,0 L25.8,0 L26.4,0 L27,0 L27.6,0 L28.2,0 L28.8,0 L29.4,0 L30,0 L30.6,0 L31.2,0 L31.8,0 L32.4,0 L33,0 L33.6,0 L34.2,0 L34.8,2.0606482 L35.4,31.465124 L36,60.04508 L36.6,87.82363 L37.2,114.823265 L37.8,141.0658 L38.4,166.57248 L39,191.36395 L39.6,211.38972 L40.2,214.22212 L40.8,219.22784 L41.4,225.13927 L42,231.53543 L42.6,238.4786 L43.2,246.16106 L43.8,253.7237 L44.4,261.96292 L45,270.09888 L45.6,278.92493 L46.2,287.5706 L46.8,288.61386 L47.4,290.00058 L48,290.00058 L48.6,290.00058 L49.2,290.00058 L49.8,290.00058 L50.4,290.00058 L51,290.00058 L51.6,290.00058 L52.2,290.00058 L52.8,290.00058 L53.4,290.00058 L54,290.00058 L54.6,290.00058 L55.2,290.00058 L55.8,290.00058 L56.4,290.00058 L57,290.00058 L57.6,290.00058 L58.2,290.00058 L58.8,290.00058 L59.4,290.00058 L60,290.00058 L60.6,290.00058 L61.2,290.00058 L61.8,290.00058 L62.4,290.00058 L63,290.00058 L63.6,290.00058 L64.2,290.00058 L64.8,290.00058 L65.4,290.00058 L66,290.00058 L66.6,190.32364 L67.2,150.31818 L67.8,94.24191 L68.4,47.757805 L69,37.189056 L69.6,-5.643472 L70.2,-15.6168165 L70.8,-16.343304 L71.4,-25.80622 L72,-57.44042 L72.6,198.1747 L73.2,61.35476 L73.8,-24.878714 L74.4,-20.248772 L75,-30.78903 L75.6,-30.401367 L76.2,-40.49103 L76.8,-73.60177 L77.4,188.60063 L78,50.255524 L78.6,-37.69797 L79.2,-32.569984 L79.8,-43.14159 L80.4,-42.529495 L81,-84.695915 L81.6,187.43408 L82.2,49.78327 L82.8,-40.175415 L83.4,-35.124218 L84,-45.67606 L84.6,-45.20207 L85.2,-88.14981 L85.8,185.46584 L86.4,48.17763 L87,48.89666 L87.6,3.5324805 L88.2,-40.36123 L88.8,-50.07348 L89.4,197.39784 L90,49.958687 L90.6,-21.158644 L91.2,-23.916227 L91.8,-32.56515 L92.4,-35.40962 L93,-43.278023 L93.6,-86.4725 L94.2,-16.172798 L94.8,-24.052042 L95.4,-5.5449424 L96,6.5911984 L96.6,16.474379 L97.2,28.74858 L97.8,38.997414 L98.4,51.72786 L99,-52.71502 L99.6,45.39353 L100.2,27.43504 L100.8,48.39113 L101.4,51.73086 L102,-47.618904 L102.6,45.85938 L103.2,24.079906 L103.8,44.73749 L104.4,48.577526 L105,-51.480312 L105.6,42.4741 L106.2,20.384834 L106.8,41.19971 L107.4,45.157673 L108,47.47396 L108.6,50.99943 L109.2,-48.32141 L109.8,44.721214 L110.4,23.77269 L111,43.554836 L111.6,47.433563 L112.2,49.72917 L112.8,-48.41904 L113.4,44.144154 L114,22.847158 L114.6,42.912952 L115.2,46.812813 L115.8,49.11375 L116.4,-49.025513 L117,43.570786 L117.6,22.181772 L118.2,42.313427 L118.8,46.23342 L119.4,48.53959 L120,52.02008 L120.6,-47.275974 L121.2,45.686924 L121.8,24.917776 L122.4,44.565067 L123,48.410744 L123.6,50.698193 L124.2,-47.48498 L124.8,45.047 L125.4,23.846249 L126,43.856842 L126.6,47.725403 L127.2,50.018414 L127.8,-48.158165 L128.4,44.41371 L129,23.10388 L129.6,43.194782 L130.2,47.085243 L130.8,49.383778 L131.4,-48.769417 L132,43.822388 L132.6,22.450567 L133.2,42.576515 L133.8,46.48765 L134.4,48.791504 L135,-49.337196 L135.6,43.27052 L136.2,21.846933 L136.8,41.99944 L137.4,45.930058 L138,48.23902 L138.6,51.73221 L139.2,-47.560078 L139.8,45.41453 L140.4,24.619478 L141,44.280144 L141.6,48.135082 L142.2,50.42479 L142.8,-47.746872 L143.4,44.792274 L144,23.5682 L144.6,43.590553 L145.2,47.46789 L145.8,49.7631 L146.4,-48.402683 L147,44.175827 L147.6,22.84427 L148.2,42.946068 L148.8,46.844822 L149.4,49.145473 L150,-48.997646 L150.6,43.600346 L151.2,22.20821 L151.8,42.344337 L152.4,46.26329 L153,48.569183 L153.6,52.048428 L154.2,-47.248405 L154.8,45.713745 L155.4,24.94622 L156,44.59312 L156.6,48.43789 L157.2,50.725117 L157.8,-47.459255 L158.4,45.072086 L159,23.873484 L159.6,43.883064 L160.2,47.750763 L160.8,50.043556 L161.4,-48.13409 L162,44.43714 L162.6,23.129423 L163.2,43.219276 L163.8,47.108925 L164.4,49.40725 L165,-48.746937 L165.6,43.844257 L166.2,22.474434 L166.8,42.599384 L167.4,46.50975 L168,48.813404 L168.6,-49.31622 L169.2,43.290928 L169.8,21.869211 L170.4,42.02078 L171,45.950672 L171.6,48.25945 L172.2,51.75177 L172.8,-47.540802 L173.4,45.43304 L174,24.63968 L174.6,44.299503 L175.2,48.153816 L175.8,50.443367 L176.4,-47.729084 L177,44.80958 L177.6,23.587082 L178.2,43.608646 L178.8,47.48539 L179.4,49.780445 L180,-48.386074 L180.6,44.19199 L181.2,22.861908 L181.8,42.962967 L182.4,46.861153 L183,49.161663 L183.6,-48.982143 L184.2,43.61543 L184.8,22.224674 L185.4,42.36011 L186,46.27853 L186.6,48.584286 L187.2,-49.53566 L187.8,43.077435 L188.4,21.636139 L189,41.797516 L189.6,45.734997 L190.2,48.04578 L190.8,51.547127 L191.4,-47.74246 L192,45.239407 L192.6,24.428324 L193.2,44.09695 L193.8,47.957874 L194.4,50.249046 L195,-47.915173 L195.6,44.628536 L196.2,23.389553 L196.8,43.419373 L197.4,47.30238 L198,49.59902 L198.6,-48.55983 L199.2,44.02294 L199.8,22.677425 L200.4,42.786213 L201,46.690315 L201.6,48.992348 L202.2,-49.144302 L202.8,43.45766 L203.4,22.052465 L204,42.195137 L204.6,46.119125 L205.2,48.426342 L205.8,51.91162 L206.4,-47.383213 L207,45.584293 L207.6,24.80494 L208.2,44.457718 L208.8,48.30688 L209.4,50.595173 L210,-47.58369 L210.6,44.95102 L211.2,23.741413 L211.8,43.756504 L212.4,47.62837 L213,49.922203 L213.6,-48.25031 L214.2,44.32407 L214.8,23.006044 L215.4,43.101063 L216,46.994644 L216.6,49.293972 L217.2,-48.855427 L217.8,43.738712 L218.4,22.359236 L219,42.48902 L219.6,46.4031 L220.2,48.707718 L220.8,-49.417442 L221.4,43.192448 L222,21.761703 L222.6,41.917793 L223.2,45.851185 L223.8,48.160885 L224.4,51.65737 L225,-47.633823 L225.6,45.34372 L226.2,24.542185 L226.8,44.20607 L227.4,48.063427 L228,50.353725 L228.6,-47.81493 L229.2,44.726063 L229.8,23.49596 L230.4,43.52133 L231,47.400963 L231.6,49.696747 L232.2,-48.466232 L232.8,44.114002 L233.4,22.776802 L234,42.881424 L234.6,46.78234 L235.2,49.08355 L235.8,-49.056953 L236.4,43.542645 L237,22.145227 L237.6,42.284 L238.2,46.204987 L238.8,48.511417 L239.4,51.9931 L240,-47.302925 L240.6,0 L241.2,-8.257131 L241.8,0 L242.4,0 L243,0 L243.6,0 L244.2,0 L244.8,0 L245.4,0 L246,0 L246.6,0 L247.2,0 L247.8,0 L248.4,0 L249,0 L249.6,0 L250.2,0 L250.8,0 L251.4,0 L252,0 L252.6,0 L253.2,0 L253.8,0 L254.4,0 L255,0 L255.6,0 L256.2,0 L256.8,0 L257.4,0 L258,0 L258.6,0 L259.2,0 L259.8,0 L260.4,0 L261,0 L261.6,0 L262.2,0 L262.8,0 L263.4,0 L264,0 L264.6,0 L265.2,0 L265.8,0 L266.4,0 L267,0 L267.6,0 L268.2,0 L268.8,0 L269.4,0 L270,0 L270.6,0 L271.2,0 L271.8,0 L272.4,0 L273,0 L273.6,0 L274.2,0 L274.8,0 L275.4,0 L276,0 L276.6,0 L277.2,0 L277.8,0 L278.4,0 L279,0 L279.6,0 L280.2,0 L280.8,0 L281.4,0 L282,0 L282.6,0 L283.2,0 L283.8,0 L284.4,0 L285,0 L285.6,0 L286.2,0 L286.8,0 L287.4,0 L288,0 L288.6,0 L289.2,0 L289.8,0 L290.4,0 L291,0 L291.6,0 L292.2,0 L292.8,0 L293.4,0 L294,0 L294.6,0 L295.2,0 L295.8,0 L296.4,0 L297,0 L297.6,0 L298.2,0 L298.8,0 L299.4,0 L300,0 L300.6,0 L301.2,0 L301.8,0 L302.4,0 L303,0 L303.6,0 L304.2,0 L304.8,0 L305.4,0 L306,0 L306.6,0 L307.2,0 L307.8,0 L308.4,0 L309,0 L309.6,0 L310.2,0 L310.8,0 L311.4,0 L312,0 L312.6,0 L313.2,0 L313.8,0 L314.4,0 L315,0 L315.6,0 L316.2,0 L316.8,0 L317.4,0 L318,0 L318.6,0 L319.2,0 L319.8,0 L320.4,0 L321,0 L321.6,0 L322.2,0 L322.8,0 L323.4,0 L324,0 L324.6,0 L325.2,0 L325.8,0 L326.4,0 L327,0 L327.6,0 L328.2,0 L328.8,0 L329.4,0 L330,0 L330.6,0 L331.2,0 L331.8,0 L332.4,0 L333,0 L333.6,0 L334.2,0 L334.8,0 L335.4,0 L336,0 L336.6,0 L337.2,0 L337.8,0 L338.4,0 L339,0 L339.6,0 L340.2,0 L340.8,0 L341.4,0 L342,0 L342.6,0 L343.2,0 L343.8,0 L344.4,0 L345,0 L345.6,0 L346.2,0 L346.8,0 L347.4,0 L348,0 L348.6,0 L349.2,0 L349.8,0 L350.4,0 L351,0 L351.6,0 L352.2,0 L352.8,0 L353.4,0 L354,0 L354.6,0 L355.2,0 L355.8,0 L356.4,0 L357,0 L357.6,0 L358.2,0 L358.8,0 L359.4,0 L360,0 L360.6,10.164748 L361.2,14.155306 L361.8,17.939352 L362.4,21.751848 L363,25.222216 L363.6,28.95666 L364.2,32.009434 L364.8,35.86084 L365.4,38.254917 L366,42.1821 L366.6,44.464886 L367.2,48.147476 L367.8,50.35147 L368.4,-49.074905 L369,44.507072 L369.6,20.237213 L370.2,43.568737 L370.8,47.4468 L371.4,49.74219 L372,-53.036343 L372.6,38.84967 L373.2,18.783905 L373.8,42.06004 L374.4,44.993565 L375,49.12596 L375.6,-55.294582 L376.2,34.939445 L376.8,17.157236 L377.4,37.904793 L378,43.719 L378.6,47.3991 L379.2,51.6173 L379.8,-55.23044 L380.4,34.005283 L381,17.351557 L381.6,35.38914 L382.2,43.33508 L382.8,46.094616 L383.4,50.641212 L384,-55.08543 L384.6,30.379715 L385.2,15.859417 L385.8,31.072128 L386.4,37.285683 L387,41.500145 L387.6,46.501842 L388.2,50.0952 L388.8,-52.82064 L389.4,236.78554 L390,83.690834 L390.6,-13.839441 L391.2,-26.81828 L391.8,-41.448776 L392.4,-53.94252 L393,174.52872 L393.6,35.930496 L394.2,43.520626 L394.8,48.27273 L395.4,48.980072 L396,-43.149216 L396.6,-47.347 L397.2,-57.93788 L397.8,172.23445 L398.4,115.83434 L399,145.57086 L399.6,208.32228 L400.2,243.6402 L400.8,263.54074 L401.4,257.8154 L402,154.32191 L402.6,106.47116 L403.2,54.19486 L403.8,9.947177 L404.4,-29.031355 L405,-38.351295 L405.6,-46.56508 L406.2,-65.74793 L406.8,89.21522 L407.4,73.168495 L408,161.5097 L408.6,179.6547 L409.2,190.981 L409.8,183.7162 L410.4,107.12019 L411,74.04564 L411.6,29.506886 L412.2,-20.034475 L412.8,-57.428925 L413.4,52.587128 L414,101.93913 L414.6,122.929016 L415.2,119.572334 L415.8,66.03243 L416.4,24.960524 L417,-6.357193 L417.6,-30.049969 L418.2,-47.7882 L418.8,-60.882107 L419.4,13.120836 L420,46.660465 L420.6,61.273106 L421.2,59.612072 L421.8,32.035793 L422.4,10.887937 L423,-5.2309294 L423.6,-17.418797 L424.2,-26.53703 L424.8,-33.26126 L425.4,-31.991385 L426,-30.768936 L426.6,-29.59217 L427.2,-28.45941 L427.8,-27.36903 L428.4,-26.319475 L429,-25.309237 L429.6,-24.336868 L430.2,-23.400972 L430.8,-22.500204 L431.4,-21.633266 L432,-20.798912 L432.6,-19.995935 L433.2,-19.223177 L433.8,-18.47952 L434.4,-17.763891 L435,-17.075247 L435.6,-16.412592 L436.2,-15.774961 L436.8,-15.16143 L437.4,-14.571102 L438,-14.003118 L438.6,-13.456647 L439.2,-12.930891 L439.8,-12.42508 L440.4,-11.938473 L441,-11.470354 L441.6,-11.020036 L442.2,-10.586855 L442.8,-10.170173 L443.4,-9.769375 L444,-9.383868 L444.6,-9.0130825 L445.2,-8.6564665 L445.8,-8.313492 L446.4,-7.9836473 L447,-7.6664424 L447.6,-7.361404 L448.2,-7.068076 L448.8,-6.7860193 L449.4,-6.514811 L450,-6.254044 L450.6,-6.0033264 L451.2,-5.76228 L451.8,-5.5305414 L452.4,-5.30776 L453,-5.0935984 L453.6,-4.8877316 L454.2,-4.6898475 L454.8,-4.499644 L455.4,-4.316831 L456,-4.14113 L456.6,-3.9722712 L457.2,-3.8099961 L457.8,-3.6540549 L458.4,-3.5042074 L459,-3.3602228 L459.6,-3.2218783 L460.2,-3.0889597 L460.8,-2.9612603 L461.4,-2.8385818 L462,-2.7207327 L462.6,-2.607529 L463.2,-2.4987934 L463.8,-2.3943553 L464.4,-2.2940505 L465,-2.1977205 L465.6,-2.1052136 L466.2,-2.0163832 L466.8,-1.9310881 L467.4,-1.8491925 L468,-1.7705659 L468.6,-1.6950824 L469.2,-1.622621 L469.8,-1.5530655 L470.4,-1.4863034 L471,-1.4222271 L471.6,-1.3607327 L472.2,-1.3017201 L472.8,-1.2450933 L473.4,-1.1907599 L474,-1.1386306 L474.6,-1.0886201 L475.2,-1.0406455 L475.8,-0.99462783 L476.4,-0.9504907 L477,-0.9081606 L477.6,-0.86756706 L478.2,-0.828642 L478.8,-0.79132015 L479.4,-0.7555385 L480,-0.72123665" fill="none" stroke="#DD3355" stroke-linejoin="round" stroke-width="2"/>
</g>
</g>
<g>
<g>
<path d="M0,0 L0,0 L0.6,0 L1.2,0 L1.8,0 L2.4,0 L3,0 L3.6,0 L4.2,0 L4.8,0 L5.4,0 L6,0 L6.6,0 L7.2,0 L7.8,0 L8.4,0 L9,0 L9.6,0 L10.2,0 L10.8,0 L11.4,0 L12,0 L12.6,0 L13.2,0 L13.8,0 L14.4,0 L15,0 L15.6,0 L16.2,0 L16.8,0 L17.4,0 L18,0 L18.6,0 L19.2,0 L19.8,0 L20.4,0 L21,0 L21.6,0 L22.2,0 L22.8,0 L23.4,0 L24,0 L24.6,0 L25.2,0 L25.8,0 L26.4,0 L27,0 L27.6,0 L28.2,0 L28.8,0 L29.4,0 L30,0 L30.6,0 L31.2,0 L31.8,0 L32.4,0 L33,0 L33.6,0 L34.2,0 L34.8,0 L35.4,0 L36,0 L36.6,0 L37.2,0 L37.8,0 L38.4,0 L39,0 L39.6,0 L40.2,0 L40.8,0 L41.4,0 L42,0 L42.6,0 L43.2,0 L43.8,0 L44.4,0 L45,0 L45.6,0 L46.2,0 L46.8,0 L47.4,0 L48,0 L48.6,0 L49.2,0 L49.8,0 L50.4,0 L51,0 L51.6,0 L52.2,0 L52.8,0 L53.4,0 L54,0 L54.6,0 L55.2,0 L55.8,0 L56.4,0 L57,0 L57.6,0 L58.2,0 L58.8,0 L59.4,0 L60,0 L60.6,0 L61.2,0 L61.8,0 L62.4,0 L63,0 L63.6,0 L64.2,0 L64.8,0 L65.4,0 L66,0 L66.6,0 L67.2,0 L67.8,0 L68.4,0 L69,0 L69.6,0 L70.2,0 L70.8,0 L71.4,0 L72,0 L72.6,-0.09714286 L73.2,0 L73.8,0 L74.4,0 L75,0 L75.6,0 L76.2,0 L76.8,0 L77.4,-0.09714286 L78,0 L78.6,0 L79.2,0 L79.8,0 L80.4,0 L81,0 L81.6,-0.09714286 L82.2,0 L82.8,0 L83.4,0 L84,0 L84.6,0 L85.2,0 L85.8,-0.09714286 L86.4,0 L87,0 L87.6,0 L88.2,0 L88.8,0 L89.4,-0.09714286 L90,0 L90.6,0 L91.2,0 L91.8,0 L92.4,0 L93,0 L93.6,0 L94.2,0 L94.8,0 L95.4,0 L96,0 L96.6,0 L97.2,0 L97.8,0 L98.4,0 L99,0 L99.6,0 L100.2,0 L100.8,0 L101.4,0 L102,0 L102.6,0 L103.2,0 L103.8,0 L104.4,0 L105,0 L105.6,0 L106.2,0 L106.8,0 L107.4,0 L108,0 L108.6,0 L109.2,0 L109.8,0 L110.4,0 L111,0 L111.6,0 L112.2,0 L112.8,0 L113.4,0 L114,0 L114.6,0 L115.2,0 L115.8,0 L116.4,0 L117,0 L117.6,0 L118.2,0 L118.8,0 L119.4,0 L120,0 L120.6,0 L121.2,0 L121.8,0 L122.4,0 L123,0 L123.6,0 L124.2,0 L124.8,0 L125.4,0 L126,0 L126.6,0 L127.2,0 L127.8,0 L128.4,0 L129,0 L129.6,0 L130.2,0 L130.8,0 L131.4,0 L132,0 L132.6,0 L133.2,0 L133.8,0 L134.4,0 L135,0 L135.6,0 L136.2,0 L136.8,0 L137.4,0 L138,0 L138.6,0 L139.2,0 L139.8,0 L140.4,0 L141,0 L141.6,0 L142.2,0 L142.8,0 L143.4,0 L144,0 L144.6,0 L145.2,0 L145.8,0 L146.4,0 L147,0 L147.6,0 L148.2,0 L148.8,0 L149.4,0 L150,0 L150.6,0 L151.2,0 L151.8,0 L152.4,0 L153,0 L153.6,0 L154.2,0 L154.8,0 L155.4,0 L156,0 L156.6,0 L157.2,0 L157.8,0 L158.4,0 L159,0 L159.6,0 L160.2,0 L160.8,0 L161.4,0 L162,0 L162.6,0 L163.2,0 L163.8,0 L164.4,0 L165,0 L165.6,0 L166.2,0 L166.8,0 L167.4,0 L168,0 L168.6,0 L169.2,0 L169.8,0 L170.4,0 L171,0 L171.6,0 L172.2,0 L172.8,0 L173.4,0 L174,0 L174.6,0 L175.2,0 L175.8,0 L176.4,0 L177,0 L177.6,0 L178.2,0 L178.8,0 L179.4,0 L180,0 L180.6,0 L181.2,0 L181.8,0 L182.4,0 L183,0 L183.6,0 L184.2,0 L184.8,0 L185.4,0 L186,0 L186.6,0 L187.2,0 L187.8,0 L188.4,0 L189,0 L189.6,0 L190.2,0 L190.8,0 L191.4,0 L192,0 L192.6,0 L193.2,0 L193.8,0 L194.4,0 L195,0 L195.6,0 L196.2,0 L196.8,0 L197.4,0 L198,0 L198.6,0 L199.2,0 L199.8,0 L200.4,0 L201,0 L201.6,0 L202.2,0 L202.8,0 L203.4,0 L204,0 L204.6,0 L205.2,0 L205.8,0 L206.4,0 L207,0 L207.6,0 L208.2,0 L208.8,0 L209.4,0 L210,0 L210.6,0 L211.2,0 L211.8,0 L212.4,0 L213,0 L213.6,0 L214.2,0 L214.8,0 L215.4,0 L216,0 L216.6,0 L217.2,0 L217.8,0 L218.4,0 L219,0 L219.6,0 L220.2,0 L220.8,0 L221.4,0 L222,0 L222.6,0 L223.2,0 L223.8,0 L224.4,0 L225,0 L225.6,0 L226.2,0 L226.8,0 L227.4,0 L228,0 L228.6,0 L229.2,0 L229.8,0 L230.4,0 L231,0 L231.6,0 L232.2,0 L232.8,0 L233.4,0 L234,0 L234.6,0 L235.2,0 L235.8,0 L236.4,0 L237,0 L237.6,0 L238.2,0 L238.8,0 L239.4,0 L240,0 L240.6,0 L241.2,0 L241.8,0 L242.4,0 L243,0 L243.6,0 L244.2,0 L244.8,0 L245.4,0 L246,0 L246.6,0 L247.2,0 L247.8,0 L248.4,0 L249,0 L249.6,0 L250.2,0 L250.8,0 L251.4,0 L252,0 L252.6,0 L253.2,0 L253.8,0 L254.4,0 L255,0 L255.6,0 L256.2,0 L256.8,0 L257.4,0 L258,0 L258.6,0 L259.2,0 L259.8,0 L260.4,0 L261,0 L261.6,0 L262.2,0 L262.8,0 L263.4,0 L264,0 L264.6,0 L265.2,0 L265.8,0 L266.4,0 L267,0 L267.6,0 L268.2,0 L268.8,0 L269.4,0 L270,0 L270.6,0 L271.2,0 L271.8,0 L272.4,0 L273,0 L273.6,0 L274.2,0 L274.8,0 L275.4,0 L276,0 L276.6,0 L277.2,0 L277.8,0 L278.4,0 L279,0 L279.6,0 L280.2,0 L280.8,0 L281.4,0 L282,0 L282.6,0 L283.2,0 L283.8,0 L284.4,0 L285,0 L285.6,0 L286.2,0 L286.8,0 L287.4,0 L288,0 L288.6,0 L289.2,0 L289.8,0 L290.4,0 L291,0 L291.6,0 L292.2,0 L292.8,0 L293.4,0 L294,0 L294.6,0 L295.2,0 L295.8,0 L296.4,0 L297,0 L297.6,0 L298.2,0 L298.8,0 L299.4,0 L300,0 L300.6,0 L301.2,0 L301.8,0 L302.4,0 L303,0 L303.6,0 L304.2,0 L304.8,0 L305.4,0 L306,0 L306.6,0 L307.2,0 L307.8,0 L308.4,0 L309,0 L309.6,0 L310.2,0 L310.8,0 L311.4,0 L312,0 L312.6,0 L313.2,0 L313.8,0 L314.4,0 L315,0 L315.6,0 L316.2,0 L316.8,0 L317.4,0 L318,0 L318.6,0 L319.2,0 L319.8,0 L320.4,0 L321,0 L321.6,0 L322.2,0 L322.8,0 L323.4,0 L324,0 L324.6,0 L325.2,0 L325.8,0 L326.4,0 L327,0 L327.6,0 L328.2,0 L328.8,0 L329.4,0 L330,0 L330.6,0 L331.2,0 L331.8,0 L332.4,0 L333,0 L333.6,0 L334.2,0 L334.8,0 L335.4,0 L336,0 L336.6,0 L337.2,0 L337.8,0 L338.4,0 L339,0 L339.6,0 L340.2,0 L340.8,0 L341.4,0 L342,0 L342.6,0 L343.2,0 L343.8,0 L344.4,0 L345,0 L345.6,0 L346.2,0 L346.8,0 L347.4,0 L348,0 L348.6,0 L349.2,0 L349.8,0 L350.4,0 L351,0 L351.6,0 L352.2,0 L352.8,0 L353.4,0 L354,0 L354.6,0 L355.2,0 L355.8,0 L356.4,0 L357,0 L357.6,0 L358.2,0 L358.8,0 L359.4,0 L360,0 L360.6,0 L361.2,0 L361.8,0 L362.4,0 L363,0 L363.6,0 L364.2,0 L364.8,0 L365.4,0 L366,0 L366.6,0 L367.2,0 L367.8,0 L368.4,0 L369,0 L369.6,0 L370.2,0 L370.8,0 L371.4,0 L372,0 L372.6,0 L373.2,0 L373.8,0 L374.4,0 L375,0 L375.6,0 L376.2,0 L376.8,0 L377.4,0 L378,0 L378.6,0 L379.2,0 L379.8,0 L380.4,0 L381,0 L381.6,0 L382.2,0 L382.8,0 L383.4,0 L384,0 L384.6,0 L385.2,0 L385.8,0 L386.4,0 L387,0 L387.6,0 L388.2,0 L388.8,0 L389.4,-0.09714286 L390,0 L390.6,0 L391.2,0 L391.8,0 L392.4,0 L393,-0.09714286 L393.6,0 L394.2,0 L394.8,0 L395.4,0 L396,0 L396.6,0 L397.2,0 L397.8,-0.09714286 L398.4,-0.09714286 L399,-0.09714286 L399.6,-0.09714286 L400.2,-0.09714286 L400.8,-0.09714286 L401.4,0 L402,0 L402.6,0 L403.2,0 L403.8,0 L404.4,0 L405,0 L405.6,0 L406.2,0 L406.8,-0.09714286 L407.4,-0.09714286 L408,-0.09714286 L408.6,-0.09714286 L409.2,-0.09714286 L409.8,0 L410.4,0 L411,0 L411.6,0 L412.2,0 L412.8,0 L413.4,-0.09714286 L414,-0.09714286 L414.6,-0.09714286 L415.2,0 L415.8,0 L416.4,0 L417,0 L417.6,0 L418.2,0 L418.8,0 L419.4,-0.09714286 L420,-0.09714286 L420.6,-0.09714286 L421.2,0 L421.8,0 L422.4,0 L423,0 L423.6,0 L424.2,0 L424.8,0 L425.4,0 L426,0 L426.6,0 L427.2,0 L427.8,0 L428.4,0 L429,0 L429.6,0 L430.2,0 L430.8,0 L431.4,0 L432,0 L432.6,0 L433.2,0 L433.8,0 L434.4,0 L435,0 L435.6,0 L436.2,0 L436.8,0 L437.4,0 L438,0 L438.6,0 L439.2,0 L439.8,0 L440.4,0 L441,0 L441.6,0 L442.2,0 L442.8,0 L443.4,0 L444,0 L444.6,0 L445.2,0 L445.8,0 L446.4,0 L447,0 L447.6,0 L448.2,0 L448.8,0 L449.4,0 L450,0 L450.6,0 L451.2,0 L451.8,0 L452.4,0 L453,0 L453.6,0 L454.2,0 L454.8,0 L455.4,0 L456,0 L456.6,0 L457.2,0 L457.8,0 L458.4,0 L459,0 L459.6,0 L460.2,0 L460.8,0 L461.4,0 L462,0 L462.6,0 L463.2,0 L463.8,0 L464.4,0 L465,0 L465.6,0 L466.2,0 L466.8,0 L467.4,0 L468,0 L468.6,0 L469.2,0 L469.8,0 L470.4,0 L471,0 L471.6,0 L472.2,0 L472.8,0 L473.4,0 L474,0 L474.6,0 L475.2,0 L475.8,0 L476.4,0 L477,0 L477.6,0 L478.2,0 L478.8,0 L479.4,0 L480,0" fill="none" stroke="#DD3355" stroke-linejoin="round" stroke-width="2"/>
</g>
</g>
<g>
<g>
<path d="M0,0 L0,0 L0.6,0 L1.2,0 L1.8,0 L2.4,0 L3,0 L3.6,0 L4.2,0 L4.8,0 L5.4,0 L6,0 L6.6,0 L7.2,0 L7.8,0 L8.4,0 L9,0 L9.6,0 L10.2,0 L10.8,0 L11.4,0 L12,0 L12.6,0 L13.2,0 L13.8,0 L14.4,0 L15,0 L15.6,0 L16.2,0 L16.8,0 L17.4,0 L18,0 L18.6,0 L19.2,0 L19.8,0 L20.4,0 L21,0 L21.6,0 L22.2,0 L22.8,0 L23.4,0 L24,0 L24.6,0 L25.2,0 L25.8,0 L26.4,0 L27,0 L27.6,0 L28.2,0 L28.8,0 L29.4,0 L30,0 L30.6,0 L31.2,0 L31.8,0 L32.4,0 L33,0 L33.6,0 L34.2,0 L34.8,0 L35.4,0 L36,0 L36.6,0 L37.2,0 L37.8,0 L38.4,0 L39,0 L39.6,0 L40.2,0 L40.8,0 L41.4,0 L42,0 L42.6,0 L43.2,0 L43.8,0 L44.4,0 L45,0 L45.6,0 L46.2,0 L46.8,0 L47.4,0 L48,0 L48.6,0 L49.2,0 L49.8,0 L50.4,0 L51,0 L51.6,0 L52.2,0 L52.8,0 L53.4,0 L54,0 L54.6,0 L55.2,0 L55.8,0 L56.4,0 L57,0 L57.6,0 L58.2,0 L58.8,0 L59.4,0 L60,0 L60.6,0 L61.2,0 L61.8,0 L62.4,0 L63,0 L63.6,0 L64.2,0 L64.8,0 L65.4,0 L66,0 L66.6,-0.09714286 L67.2,-0.09714286 L67.8,-0.09714286 L68.4,-0.09714286 L69,-0.09714286 L69.6,-0.09714286 L70.2,-0.09714286 L70.8,-0.09714286 L71.4,-0.09714286 L72,-0.09714286 L72.6,-0.09714286 L73.2,0 L73.8,-0.09714286 L74.4,-0.09714286 L75,-0.09714286 L75.6,-0.09714286 L76.2,-0.09714286 L76.8,-0.09714286 L77.4,-0.09714286 L78,0 L78.6,-0.09714286 L79.2,-0.09714286 L79.8,-0.09714286 L80.4,-0.09714286 L81,-0.09714286 L81.6,-0.09714286 L82.2,0 L82.8,-0.09714286 L83.4,-0.09714286 L84,-0.09714286 L84.6,-0.09714286 L85.2,-0.09714286 L85.8,-0.09714286 L86.4,0 L87,0 L87.6,-0.09714286 L88.2,-0.09714286 L88.8,-0.09714286 L89.4,-0.09714286 L90,0 L90.6,-0.09714286 L91.2,-0.09714286 L91.8,-0.09714286 L92.4,-0.09714286 L93,-0.09714286 L93.6,-0.09714286 L94.2,0 L94.8,0 L95.4,0 L96,0 L96.6,0 L97.2,0 L97.8,0 L98.4,0 L99,-0.09714286 L99.6,0 L100.2,0 L100.8,0 L101.4,0 L102,-0.09714286 L102.6,0 L103.2,0 L103.8,0 L104.4,0 L105,-0.09714286 L105.6,0 L106.2,0 L106.8,0 L107.4,0 L108,0 L108.6,0 L109.2,-0.09714286 L109.8,0 L110.4,0 L111,0 L111.6,0 L112.2,0 L112.8,-0.09714286 L113.4,0 L114,0 L114.6,0 L115.2,0 L115.8,0 L116.4,-0.09714286 L117,0 L117.6,0 L118.2,0 L118.8,0 L119.4,0 L120,0 L120.6,-0.09714286 L121.2,0 L121.8,0 L122.4,0 L123,0 L123.6,0 L124.2,-0.09714286 L124.8,0 L125.4,0 L126,0 L126.6,0 L127.2,0 L127.8,-0.09714286 L128.4,0 L129,0 L129.6,0 L130.2,0 L130.8,0 L131.4,-0.09714286 L132,0 L132.6,0 L133.2,0 L133.8,0 L134.4,0 L135,-0.09714286 L135.6,0 L136.2,0 L136.8,0 L137.4,0 L138,0 L138.6,0 L139.2,-0.09714286 L139.8,0 L140.4,0 L141,0 L141.6,0 L142.2,0 L142.8,-0.09714286 L143.4,0 L144,0 L144.6,0 L145.2,0 L145.8,0 L146.4,-0.09714286 L147,0 L147.6,0 L148.2,0 L148.8,0 L149.4,0 L150,-0.09714286 L150.6,0 L151.2,0 L151.8,0 L152.4,0 L153,0 L153.6,0 L154.2,-0.09714286 L154.8,0 L155.4,0 L156,0 L156.6,0 L157.2,0 L157.8,-0.09714286 L158.4,0 L159,0 L159.6,0 L160.2,0 L160.8,0 L161.4,-0.09714286 L162,0 L162.6,0 L163.2,0 L163.8,0 L164.4,0 L165,-0.09714286 L165.6,0 L166.2,0 L166.8,0 L167.4,0 L168,0 L168.6,-0.09714286 L169.2,0 L169.8,0 L170.4,0 L171,0 L171.6,0 L172.2,0 L172.8,-0.09714286 L173.4,0 L174,0 L174.6,0 L175.2,0 L175.8,0 L176.4,-0.09714286 L177,0 L177.6,0 L178.2,0 L178.8,0 L179.4,0 L180,-0.09714286 L180.6,0 L181.2,0 L181.8,0 L182.4,0 L183,0 L183.6,-0.09714286 L184.2,0 L184.8,0 L185.4,0 L186,0 L186.6,0 L187.2,-0.09714286 L187.8,0 L188.4,0 L189,0 L189.6,0 L190.2,0 L190.8,0 L191.4,-0.09714286 L192,0 L192.6,0 L193.2,0 L193.8,0 L194.4,0 L195,-0.09714286 L195.6,0 L196.2,0 L196.8,0 L197.4,0 L198,0 L198.6,-0.09714286 L199.2,0 L199.8,0 L200.4,0 L201,0 L201.6,0 L202.2,-0.09714286 L202.8,0 L203.4,0 L204,0 L204.6,0 L205.2,0 L205.8,0 L206.4,-0.09714286 L207,0 L207.6,0 L208.2,0 L208.8,0 L209.4,0 L210,-0.09714286 L210.6,0 L211.2,0 L211.8,0 L212.4,0 L213,0 L213.6,-0.09714286 L214.2,0 L214.8,0 L215.4,0 L216,0 L216.6,0 L217.2,-0.09714286 L217.8,0 L218.4,0 L219,0 L219.6,0 L220.2,0 L220.8,-0.09714286 L221.4,0 L222,0 L222.6,0 L223.2,0 L223.8,0 L224.4,0 L225,-0.09714286 L225.6,0 L226.2,0 L226.8,0 L227.4,0 L228,0 L228.6,-0.09714286 L229.2,0 L229.8,0 L230.4,0 L231,0 L231.6,0 L232.2,-0.09714286 L232.8,0 L233.4,0 L234,0 L234.6,0 L235.2,0 L235.8,-0.09714286 L236.4,0 L237,0 L237.6,0 L238.2,0 L238.8,0 L239.4,0 L240,-0.09714286 L240.6,0 L241.2,0 L241.8,0 L242.4,0 L243,0 L243.6,0 L244.2,0 L244.8,0 L245.4,0 L246,0 L246.6,0 L247.2,0 L247.8,0 L248.4,0 L249,0 L249.6,0 L250.2,0 L250.8,0 L251.4,0 L252,0 L252.6,0 L253.2,0 L253.8,0 L254.4,0 L255,0 L255.6,0 L256.2,0 L256.8,0 L257.4,0 L258,0 L258.6,0 L259.2,0 L259.8,0 L260.4,0 L261,0 L261.6,0 L262.2,0 L262.8,0 L263.4,0 L264,0 L264.6,0 L265.2,0 L265.8,0 L266.4,0 L267,0 L267.6,0 L268.2,0 L268.8,0 L269.4,0 L270,0 L270.6,0 L271.2,0 L271.8,0 L272.4,0 L273,0 L273.6,0 L274.2,0 L274.8,0 L275.4,0 L276,0 L276.6,0 L277.2,0 L277.8,0 L278.4,0 L279,0 L279.6,0 L280.2,0 L280.8,0 L281.4,0 L282,0 L282.6,0 L283.2,0 L283.8,0 L284.4,0 L285,0 L285.6,0 L286.2,0 L286.8,0 L287.4,0 L288,0 L288.6,0 L289.2,0 L289.8,0 L290.4,0 L291,0 L291.6,0 L292.2,0 L292.8,0 L293.4,0 L294,0 L294.6,0 L295.2,0 L295.8,0 L296.4,0 L297,0 L297.6,0 L298.2,0 L298.8,0 L299.4,0 L300,0 L300.6,0 L301.2,0 L301.8,0 L302.4,0 L303,0 L303.6,0 L304.2,0 L304.8,0 L305.4,0 L306,0 L306.6,0 L307.2,0 L307.8,0 L308.4,0 L309,0 L309.6,0 L310.2,0 L310.8,0 L311.4,0 L312,0 L312.6,0 L313.2,0 L313.8,0 L314.4,0 L315,0 L315.6,0 L316.2,0 L316.8,0 L317.4,0 L318,0 L318.6,0 L319.2,0 L319.8,0 L320.4,0 L321,0 L321.6,0 L322.2,0 L322.8,0 L323.4,0 L324,0 L324.6,0 L325.2,0 L325.8,0 L326.4,0 L327,0 L327.6,0 L328.2,0 L328.8,0 L329.4,0 L330,0 L330.6,0 L331.2,0 L331.8,0 L332.4,0 L333,0 L333.6,0 L334.2,0 L334.8,0 L335.4,0 L336,0 L336.6,0 L337.2,0 L337.8,0 L338.4,0 L339,0 L339.6,0 L340.2,0 L340.8,0 L341.4,0 L342,0 L342.6,0 L343.2,0 L343.8,0 L344.4,0 L345,0 L345.6,0 L346.2,0 L346.8,0 L347.4,0 L348,0 L348.6,0 L349.2,0 L349.8,0 L350.4,0 L351,0 L351.6,0 L352.2,0 L352.8,0 L353.4,0 L354,0 L354.6,0 L355.2,0 L355.8,0 L356.4,0 L357,0 L357.6,0 L358.2,0 L358.8,0 L359.4,0 L360,0 L360.6,0 L361.2,0 L361.8,0 L362.4,0 L363,0 L363.6,0 L364.2,0 L364.8,0 L365.4,0 L366,0 L366.6,0 L367.2,0 L367.8,0 L368.4,-0.09714286 L369,0 L369.6,0 L370.2,0 L370.8,0 L371.4,0 L372,-0.09714286 L372.6,0 L373.2,0 L373.8,0 L374.4,0 L375,0 L375.6,-0.09714286 L376.2,0 L376.8,0 L377.4,0 L378,0 L378.6,0 L379.2,0 L379.8,-0.09714286 L380.4,0 L381,0 L381.6,0 L382.2,0 L382.8,0 L383.4,0 L384,-0.09714286 L384.6,0 L385.2,0 L385.8,0 L386.4,0 L387,0 L387.6,0 L388.2,0 L388.8,-0.09714286 L389.4,-0.09714286 L390,0 L390.6,-0.09714286 L391.2,-0.09714286 L391.8,-0.09714286 L392.4,-0.09714286 L393,-0.09714286 L393.6,0 L394.2,0 L394.8,0 L395.4,0 L396,-0.09714286 L396.6,-0.09714286 L397.2,-0.09714286 L397.8,-0.09714286 L398.4,-0.09714286 L399,-0.09714286 L399.6,-0.09714286 L400.2,-0.09714286 L400.8,-0.09714286 L401.4,0 L402,-0.09714286 L402.6,-0.09714286 L403.2,-0.09714286 L403.8,-0.09714286 L404.4,-0.09714286 L405,-0.09714286 L405.6,-0.09714286 L406.2,-0.09714286 L406.8,-0.09714286 L407.4,-0.09714286 L408,-0.09714286 L408.6,-0.09714286 L409.2,-0.09714286 L409.8,0 L410.4,-0.09714286 L411,-0.09714286 L411.6,-0.09714286 L412.2,-0.09714286 L412.8,-0.09714286 L413.4,-0.09714286 L414,-0.09714286 L414.6,-0.09714286 L415.2,0 L415.8,-0.09714286 L416.4,-0.09714286 L417,-0.09714286 L417.6,-0.09714286 L418.2,-0.09714286 L418.8,-0.09714286 L419.4,-0.09714286 L420,-0.09714286 L420.6,-0.09714286 L421.2,0 L421.8,-0.09714286 L422.4,-0.09714286 L423,-0.09714286 L423.6,-0.09714286 L424.2,-0.09714286 L424.8,-0.09714286 L425.4,0 L426,0 L426.6,0 L427.2,0 L427.8,0 L428.4,0 L429,0 L429.6,0 L430.2,0 L430.8,0 L431.4,0 L432,0 L432.6,0 L433.2,0 L433.8,0 L434.4,0 L435,0 L435.6,0 L436.2,0 L436.8,0 L437.4,0 L438,0 L438.6,0 L439.2,0 L439.8,0 L440.4,0 L441,0 L441.6,0 L442.2,0 L442.8,0 L443.4,0 L444,0 L444.6,0 L445.2,0 L445.8,0 L446.4,0 L447,0 L447.6,0 L448.2,0 L448.8,0 L449.4,0 L450,0 L450.6,0 L451.2,0 L451.8,0 L452.4,0 L453,0 L453.6,0 L454.2,0 L454.8,0 L455.4,0 L456,0 L456.6,0 L457.2,0 L457.8,0 L458.4,0 L459,0 L459.6,0 L460.2,0 L460.8,0 L461.4,0 L462,0 L462.6,0 L463.2,0 L463.8,0 L464.4,0 L465,0 L465.6,0 L466.2,0 L466.8,0 L467.4,0 L468,0 L468.6,0 L469.2,0 L469.8,0 L470.4,0 L471,0 L471.6,0 L472.2,0 L472.8,0 L473.4,0 L474,0 L474.6,0 L475.2,0 L475.8,0 L476.4,0 L477,0 L477.6,0 L478.2,0 L478.8,0 L479.4,0 L480,0" fill="none" stroke="#DD3355" stroke-linejoin="round" stroke-width="2"/>
</g>
</g>
<g>
<g>
<line stroke="black" stroke-width="1" x1="0" x2="0" y1="0" y2="10"/>
<line stroke="black" stroke-width="1" x1="120.00000000000041" x2="120.00000000000041" y1="0" y2="10"/>
<line stroke="black" stroke-width="1" x1="240.00000000000082" x2="240.00000000000082" y1="0" y2="10"/>
<line stroke="black" stroke-width="1" x1="360.0000000000012" x2="360.0000000000012" y1="0" y2="10"/>
</g>
<line stroke="black" stroke-width="1" x1="0" x2="480" y1="0" y2="0"/>
<g>
<text font-size="12" text-anchor="middle" x="0" y="20">
0
</text>
<text font-size="12" text-anchor="middle" x="120.00000000000041" y="20">
20
</text>
<text font-size="12" text-anchor="middle" x="240.00000000000082" y="20">
40
</text>
<text font-size="12" text-anchor="middle" x="360.0000000000012" y="20">
60
</text>
</g>
<text font-size="12" text-anchor="middle" x="240" y="30">
Time (s)
</text>
</g>
<g>
<g>
<line stroke="black" stroke-width="1" x1="0" x2="-10" y1="0" y2="0"/>
<line stroke="black" stroke-width="1" x1="0" x2="-10" y1="-97.14285714285714" y2="-97.14285714285714"/>
<line stroke="black" stroke-width="1" x1="0" x2="-10" y1="-194.28571428571428" y2="-194.28571428571428"/>
<line stroke="black" stroke-width="1" x1="0" x2="-10" y1="-291.42857142857144" y2="-291.42857142857144"/>
</g>
<line stroke="black" stroke-width="1" x1="0" x2="0" y1="0" y2="-340"/>
<g>
<text dominant-baseline="middle" font-size="12" text-anchor="end" x="-15" y="0">
0
</text>
<text dominant-baseline="middle" font-size="12" text-anchor="end" x="-15" y="-97.14285714285714">
1000
</text>
<text dominant-baseline="middle" font-size="12" text-anchor="end" x="-15" y="-194.28571428571428">
2000
</text>
<text dominant-baseline="middle" font-size="12" text-anchor="end" x="-15" y="-291.42857142857144">
3000
</text>
</g>
<text font-size="12" text-anchor="middle" transform="rotate(-90 -48 -170)" x="-48" y="-182">
Value
</text>
</g>
</g>
</svg>